<svg xmlns="http://www.w3.org/2000/svg" width="65.244" height="65.267" viewBox="0 0 65.244 65.267">
  <g id="Page-1" transform="translate(0.001 0.02)">
    <g id="_039---Positive-Interactions" data-name="039---Positive-Interactions" transform="translate(-0.001 -0.02)">
      <path id="Shape" d="M36.191,26.318l-7.93,7.93-1.406-1.406a1.087,1.087,0,0,0-1.537,1.537l2.175,2.175a1.087,1.087,0,0,0,1.537,0l8.7-8.7a1.087,1.087,0,0,0-1.537-1.537Z" transform="translate(1.098 1.206)" fill="#707070"/>
      <path id="Shape-2" data-name="Shape" d="M51.017,35.8h-.151A17.288,17.288,0,0,0,31.445,16.375v-.151a15.223,15.223,0,1,0-24.7,11.9c.017.018.042.028.061.046a15.2,15.2,0,0,0,4.616,2.5c.022.01.045.016.067.025a15.153,15.153,0,0,0,4.729.756h.151A17.288,17.288,0,0,0,35.794,50.868v.151a15.2,15.2,0,0,0,5.75,11.9c.017.018.042.028.061.046a15.2,15.2,0,0,0,4.616,2.5c.022.01.045.016.067.025a15.07,15.07,0,0,0,9.46,0c.023-.009.046-.015.067-.025a15.182,15.182,0,0,0,4.615-2.5c.02-.017.045-.027.062-.046A15.208,15.208,0,0,0,51.017,35.8Zm0,17.4a5.409,5.409,0,0,1-5.11-7.272,17.445,17.445,0,0,0,2.246-2.771,5.353,5.353,0,0,1,2.864-.831,5.437,5.437,0,0,1,0,10.873ZM3.175,16.224a13.048,13.048,0,1,1,26.1,0c0,.2-.007.391-.014.576a17.319,17.319,0,0,0-6.316,3.121,7.435,7.435,0,0,0-1.926-1.049,7.611,7.611,0,1,0-9.58,0,7.623,7.623,0,0,0-4.91,6.051,12.983,12.983,0,0,1-3.349-8.7Zm7.611-3.262A5.437,5.437,0,1,1,16.223,18.4,5.437,5.437,0,0,1,10.786,12.962Zm5.437,16.31a12.967,12.967,0,0,1-3.262-.429V26.01a1.087,1.087,0,0,0-2.175,0v2.066a13.048,13.048,0,0,1-2.175-1.27v-.8a5.443,5.443,0,0,1,5.437-5.437H18.4a5.353,5.353,0,0,1,2.861.825A17.383,17.383,0,0,0,16.8,29.258c-.187.008-.375.014-.577.014ZM18.4,33.621A15.223,15.223,0,1,1,33.62,48.844,15.223,15.223,0,0,1,18.4,33.621Zm19.572,17.4c0-.2.007-.391.014-.576a17.28,17.28,0,0,0,5.437-2.457,7.6,7.6,0,0,0,2.813,5.68,7.623,7.623,0,0,0-4.915,6.052A12.983,12.983,0,0,1,37.969,51.019Zm9.786,12.613V60.8a1.087,1.087,0,1,0-2.175,0V62.87a13.048,13.048,0,0,1-2.175-1.27v-.8a5.443,5.443,0,0,1,5.437-5.437h4.349A5.443,5.443,0,0,1,58.628,60.8v.79a13.048,13.048,0,0,1-2.175,1.275V60.8a1.087,1.087,0,1,0-2.175,0v2.827a12.6,12.6,0,0,1-6.524,0Zm12.961-3.914A7.623,7.623,0,0,0,55.8,53.665a7.611,7.611,0,0,0-4.784-13.52,7.494,7.494,0,0,0-1.328.129,17.355,17.355,0,0,0,.751-2.29c.186-.008.374-.014.576-.014a13.026,13.026,0,0,1,9.7,21.746Z" transform="translate(-0.999 -0.98)" fill="#707070"/>
      <path id="Shape-3" data-name="Shape" d="M37.118,2.319a1.087,1.087,0,0,0-1.537,0L32.319,5.581a1.087,1.087,0,0,0,0,1.537l3.262,3.262a1.087,1.087,0,0,0,1.537-1.537L35.765,7.49a26.126,26.126,0,0,1,24.5,26.042,1.087,1.087,0,0,0,2.175,0A28.305,28.305,0,0,0,35.672,5.3l1.446-1.446a1.087,1.087,0,0,0,0-1.537Z" transform="translate(1.708 -0.89)" fill="#707070"/>
      <path id="Shape-4" data-name="Shape" d="M4.175,31.087a1.087,1.087,0,0,0-2.175,0,28.305,28.305,0,0,0,26.773,28.23l-1.446,1.446A1.087,1.087,0,1,0,28.864,62.3l3.262-3.262a1.087,1.087,0,0,0,0-1.537L28.864,54.24a1.087,1.087,0,0,0-1.537,1.537L28.68,57.13a26.126,26.126,0,0,1-24.5-26.042Z" transform="translate(-0.912 1.555)" fill="#707070"/>
    </g>
  </g>
</svg>
