<svg xmlns="http://www.w3.org/2000/svg" width="65.267" height="65.267" viewBox="0 0 65.267 65.267">
  <path id="copy" d="M57.619,65.267H22.946A7.657,7.657,0,0,1,15.3,57.619V22.946A7.657,7.657,0,0,1,22.946,15.3H57.619a7.657,7.657,0,0,1,7.649,7.649V57.619A7.657,7.657,0,0,1,57.619,65.267ZM22.946,20.4a2.552,2.552,0,0,0-2.55,2.55V57.619a2.552,2.552,0,0,0,2.55,2.55H57.619a2.552,2.552,0,0,0,2.55-2.55V22.946a2.552,2.552,0,0,0-2.55-2.55ZM10.2,44.871H7.649a2.552,2.552,0,0,1-2.55-2.55V7.649A2.552,2.552,0,0,1,7.649,5.1H42.322a2.552,2.552,0,0,1,2.55,2.55v2.422h5.1V7.649A7.657,7.657,0,0,0,42.322,0H7.649A7.657,7.657,0,0,0,0,7.649V42.322A7.657,7.657,0,0,0,7.649,49.97H10.2Zm0,0" fill="#707070"/>
</svg>
