<svg xmlns="http://www.w3.org/2000/svg" width="64.97" height="65" viewBox="0 0 64.97 65">
  <path id="rozwoj" d="M23.851,65a2.538,2.538,0,0,1-2.538-2.538V61.447a2.54,2.54,0,0,0-2.538-2.538H16.62a9.8,9.8,0,0,1-9.712-8.918S6.4,44.047,6.4,44.047A6.773,6.773,0,0,1,.893,34.209a61.343,61.343,0,0,1,5.628-8.48c.174-18.712,17.3-28.5,34.716-25.04A2.538,2.538,0,0,1,40.215,5.66C25.234,2.61,11.132,11.377,11.585,26.606a2.54,2.54,0,0,1-.532,1.554,60.29,60.29,0,0,0-5.662,8.4,1.623,1.623,0,0,0,.055,1.616,1.661,1.661,0,0,0,1.441.814,4.52,4.52,0,0,1,4.53,4.16l.548,6.411a4.645,4.645,0,0,0,4.655,4.274h2.155a7.621,7.621,0,0,1,7.613,7.613v1.015A2.538,2.538,0,0,1,23.851,65Zm31.593-2.538V46.729c0-3.846,1.4-6.277,3.018-9.091s3.453-6,3.453-10.576c0-1.113-.053-2.22-.157-3.29a2.538,2.538,0,0,0-5.052.491c.088.907.133,1.849.133,2.8,0,3.219-1.287,5.456-2.777,8.045-1.732,3.009-3.694,6.42-3.694,11.622V62.462a2.538,2.538,0,0,0,5.075,0ZM25.886,26.3A2.546,2.546,0,0,1,24.1,21.963s5.706-5.663,5.737-5.691a8.86,8.86,0,0,1,11.408-.394,3.874,3.874,0,0,0,5.479-.226l5.183-5.765a2.538,2.538,0,1,1,3.774,3.393L50.5,19.046A8.9,8.9,0,0,1,38.426,20.1a3.87,3.87,0,0,0-5.155-.095l-5.6,5.556A2.53,2.53,0,0,1,25.886,26.3Zm39.2-11.8V7.65A7.622,7.622,0,0,0,57.474.037H50.622a2.538,2.538,0,0,0,0,5.075h6.852A2.54,2.54,0,0,1,60.012,7.65V14.5A2.538,2.538,0,0,0,65.087,14.5Z" transform="translate(-0.116 0)" fill="#707070"/>
</svg>
