<svg xmlns="http://www.w3.org/2000/svg" width="73.628" height="65.267" viewBox="0 0 73.628 65.267">
  <g id="learning" transform="translate(0 -34.764)">
    <g id="Group_46" data-name="Group 46" transform="translate(0 34.764)">
      <g id="Group_45" data-name="Group 45" transform="translate(0 0)">
        <g id="Group_23" data-name="Group 23" transform="translate(18.39 19.641)">
          <g id="Group_12" data-name="Group 12" transform="translate(0 23.899)">
            <path id="Path_15" data-name="Path 15" d="M185.732,418.561H154.079a1.15,1.15,0,0,1-1.15-1.147c-.008-2.506.1-8.772,1.232-12.823a11.312,11.312,0,0,1,1.178-2.825,10.627,10.627,0,0,1,3.8-3.685,9.65,9.65,0,0,1,5.178-1.238,1.154,1.154,0,0,1,.625.22l4.84,3.53,5.119-3.546a1.148,1.148,0,0,1,.6-.2,9.65,9.65,0,0,1,5.178,1.238,10.618,10.618,0,0,1,3.8,3.685,11.293,11.293,0,0,1,1.178,2.825c1.135,4.052,1.24,10.317,1.232,12.823A1.15,1.15,0,0,1,185.732,418.561Zm-15.866-2.3h14.71a50.354,50.354,0,0,0-1.141-11.048,8.953,8.953,0,0,0-.938-2.265,8.247,8.247,0,0,0-2.948-2.86,7.354,7.354,0,0,0-3.616-.952h-.009l-5.508,3.815a1.151,1.151,0,0,1-1.333-.016l-5.209-3.8a7.356,7.356,0,0,0-3.61.952,8.243,8.243,0,0,0-2.948,2.86,8.959,8.959,0,0,0-.938,2.266,50.358,50.358,0,0,0-1.141,11.048h14.631Z" transform="translate(-152.928 -396.833)" fill="#707070"/>
          </g>
          <g id="Group_15" data-name="Group 15" transform="translate(6.67 34.439)">
            <g id="Group_13" data-name="Group 13">
              <path id="Path_16" data-name="Path 16" d="M209.541,495.674a1.15,1.15,0,0,1-1.15-1.15v-8.886a1.15,1.15,0,0,1,2.3,0v8.886A1.15,1.15,0,0,1,209.541,495.674Z" transform="translate(-208.391 -484.487)" fill="#707070"/>
            </g>
            <g id="Group_14" data-name="Group 14" transform="translate(18.315)">
              <path id="Path_17" data-name="Path 17" d="M361.843,495.674a1.15,1.15,0,0,1-1.15-1.15v-8.886a1.15,1.15,0,0,1,2.3,0v8.886A1.15,1.15,0,0,1,361.843,495.674Z" transform="translate(-360.693 -484.487)" fill="#707070"/>
            </g>
          </g>
          <g id="Group_22" data-name="Group 22" transform="translate(8.112)">
            <g id="Group_18" data-name="Group 18">
              <g id="Group_16" data-name="Group 16" transform="translate(0.475 8.442)">
                <path id="Path_18" data-name="Path 18" d="M232.774,283.741a8.036,8.036,0,0,1-6-2.741,9.613,9.613,0,0,1-2.43-6.473V271.12a1.15,1.15,0,0,1,.775-1.087,6.213,6.213,0,0,0,2.194-1.349,1.133,1.133,0,0,1,1.563-.135,6.49,6.49,0,0,0,2.375.973,10.15,10.15,0,0,0,6.5-.976,1.151,1.151,0,0,1,1.332.256,9.673,9.673,0,0,0,1.583,1.338,1.15,1.15,0,0,1,.546.979v3.407a9.612,9.612,0,0,1-2.43,6.473A8.038,8.038,0,0,1,232.774,283.741Zm-6.132-11.853v2.64c0,3.812,2.751,6.913,6.132,6.913s6.133-3.1,6.133-6.913v-2.8c-.276-.208-.567-.451-.87-.727l-.048-.044a12.089,12.089,0,0,1-7.374.786,9.464,9.464,0,0,1-2.319-.849A8.753,8.753,0,0,1,226.642,271.887Z" transform="translate(-224.341 -268.298)" fill="#707070"/>
              </g>
              <g id="Group_17" data-name="Group 17">
                <path id="Path_19" data-name="Path 19" d="M222.015,210.511a1.151,1.151,0,0,1-1.057-.694,8.263,8.263,0,0,1-.528-2.829,8.432,8.432,0,0,1,.111-2.5,6.466,6.466,0,0,1,1.388-2.518c.116-.142.239-.282.364-.416a12.739,12.739,0,0,1,5.919-3.126,11.88,11.88,0,0,1,3.557-.3,10.461,10.461,0,0,1,2.03.333,3.228,3.228,0,0,1,1.894,1.314,4.634,4.634,0,0,1,.425.891,2.135,2.135,0,0,0,.243.512,3.787,3.787,0,0,0,.537.476,5.769,5.769,0,0,1,2.283,3.882,5.009,5.009,0,0,1-.741,2.86l-.068.131a6.032,6.032,0,0,1-1.015,1.684,1.151,1.151,0,0,1-1.65-1.6c.067-.1.231-.389.622-1.144l.093-.178a2.809,2.809,0,0,0,.467-1.547,3.658,3.658,0,0,0-.9-1.83,4.075,4.075,0,0,0-.517-.453,5.7,5.7,0,0,1-.87-.8,3.864,3.864,0,0,1-.631-1.169,2.856,2.856,0,0,0-.21-.47,1.069,1.069,0,0,0-.584-.349,8.24,8.24,0,0,0-1.584-.255,9.6,9.6,0,0,0-2.866.252,10.141,10.141,0,0,0-4.754,2.456c-.091.1-.179.2-.263.3a4.277,4.277,0,0,0-.931,1.6,10.112,10.112,0,0,0,.29,3.882,1.151,1.151,0,0,1-.6,1.513A1.132,1.132,0,0,1,222.015,210.511Zm13.789-2h0Z" transform="translate(-220.389 -198.095)" fill="#707070"/>
              </g>
            </g>
            <g id="Group_21" data-name="Group 21" transform="translate(3.378 20.319)">
              <g id="Group_19" data-name="Group 19">
                <path id="Path_20" data-name="Path 20" d="M249.628,373.909a1.151,1.151,0,0,1-1.041-1.638,9.355,9.355,0,0,0,.558-2.78,2.153,2.153,0,0,0-.111-.777c-.019-.067-.037-.136-.057-.208a1.15,1.15,0,0,1,2.226-.582c.016.062.032.12.048.176a4.391,4.391,0,0,1,.194,1.45,11.38,11.38,0,0,1-.775,3.7,1.15,1.15,0,0,1-1.043.663Z" transform="translate(-248.478 -367.064)" fill="#707070"/>
              </g>
              <g id="Group_20" data-name="Group 20" transform="translate(7.824 0.25)">
                <path id="Path_21" data-name="Path 21" d="M315.464,375.746a1.151,1.151,0,0,1-1.024-.625,10.785,10.785,0,0,1-.9-3.894,4.226,4.226,0,0,1,.13-1.213,1.15,1.15,0,1,1,2.23.564,1.919,1.919,0,0,0-.061.591,8.645,8.645,0,0,0,.643,2.9,1.15,1.15,0,0,1-1.022,1.676Z" transform="translate(-313.541 -369.144)" fill="#707070"/>
              </g>
            </g>
          </g>
        </g>
        <g id="Group_38" data-name="Group 38">
          <g id="Group_34" data-name="Group 34" transform="translate(46.942 0.844)">
            <g id="Group_25" data-name="Group 25">
              <g id="Group_24" data-name="Group 24">
                <path id="Path_22" data-name="Path 22" d="M403.705,65.154a1.15,1.15,0,0,1-1.15-1.15,1.167,1.167,0,0,0-1.165-1.165h-9.877a1.15,1.15,0,0,1-1.15-1.15V42.929a1.15,1.15,0,0,1,1.15-1.15h9.877a3.452,3.452,0,0,1,2.316.889,3.452,3.452,0,0,1,2.316-.889H415.9a1.15,1.15,0,0,1,1.15,1.15V61.687a1.15,1.15,0,0,1-1.15,1.15h-9.877A1.167,1.167,0,0,0,404.856,64,1.15,1.15,0,0,1,403.705,65.154Zm1.15-19.908V60.738a3.454,3.454,0,0,1,1.165-.2h8.727V44.08h-8.727A1.167,1.167,0,0,0,404.856,45.245ZM392.663,60.537h8.727a3.454,3.454,0,0,1,1.165.2V45.245a1.167,1.167,0,0,0-1.165-1.165h-8.727Z" transform="translate(-390.362 -41.779)" fill="#707070"/>
              </g>
            </g>
            <g id="Group_29" data-name="Group 29" transform="translate(16.553 4.632)">
              <g id="Group_26" data-name="Group 26">
                <path id="Path_23" data-name="Path 23" d="M532.638,82.6h-3.472a1.15,1.15,0,0,1,0-2.3h3.472a1.15,1.15,0,0,1,0,2.3Z" transform="translate(-528.015 -80.302)" fill="#707070"/>
              </g>
              <g id="Group_27" data-name="Group 27" transform="translate(0 4.747)">
                <path id="Path_24" data-name="Path 24" d="M532.638,122.078h-3.472a1.15,1.15,0,1,1,0-2.3h3.472a1.15,1.15,0,1,1,0,2.3Z" transform="translate(-528.015 -119.777)" fill="#707070"/>
              </g>
              <g id="Group_28" data-name="Group 28" transform="translate(0 9.493)">
                <path id="Path_25" data-name="Path 25" d="M532.638,161.549h-3.472a1.15,1.15,0,0,1,0-2.3h3.472a1.15,1.15,0,0,1,0,2.3Z" transform="translate(-528.015 -159.248)" fill="#707070"/>
              </g>
            </g>
            <g id="Group_33" data-name="Group 33" transform="translate(4.36 4.632)">
              <g id="Group_30" data-name="Group 30">
                <path id="Path_26" data-name="Path 26" d="M431.244,82.6h-3.472a1.15,1.15,0,0,1,0-2.3h3.472a1.15,1.15,0,1,1,0,2.3Z" transform="translate(-426.621 -80.302)" fill="#707070"/>
              </g>
              <g id="Group_31" data-name="Group 31" transform="translate(0 4.747)">
                <path id="Path_27" data-name="Path 27" d="M431.244,122.078h-3.472a1.15,1.15,0,1,1,0-2.3h3.472a1.15,1.15,0,1,1,0,2.3Z" transform="translate(-426.621 -119.777)" fill="#707070"/>
              </g>
              <g id="Group_32" data-name="Group 32" transform="translate(0 9.493)">
                <path id="Path_28" data-name="Path 28" d="M431.244,161.549h-3.472a1.15,1.15,0,1,1,0-2.3h3.472a1.15,1.15,0,1,1,0,2.3Z" transform="translate(-426.621 -159.248)" fill="#707070"/>
              </g>
            </g>
          </g>
          <g id="Group_37" data-name="Group 37">
            <g id="Group_35" data-name="Group 35" transform="translate(7.718 7.718)">
              <path id="Path_29" data-name="Path 29" d="M69,108.57a4.813,4.813,0,1,1,4.813-4.813A4.818,4.818,0,0,1,69,108.57Zm0-7.325a2.512,2.512,0,1,0,2.512,2.512A2.515,2.515,0,0,0,69,101.245Z" transform="translate(-64.182 -98.944)" fill="#707070"/>
            </g>
            <g id="Group_36" data-name="Group 36">
              <path id="Path_30" data-name="Path 30" d="M14.88,59.827h-4.7a1.15,1.15,0,0,1-1.15-1.15V56.468q-.26-.1-.513-.213L6.958,57.817a1.151,1.151,0,0,1-1.627,0L2.009,54.5a1.151,1.151,0,0,1,0-1.627l1.562-1.562q-.114-.254-.213-.513H1.15A1.15,1.15,0,0,1,0,49.644v-4.7A1.15,1.15,0,0,1,1.15,43.8H3.358q.1-.26.213-.513L2.009,41.722a1.151,1.151,0,0,1,0-1.627l3.321-3.321a1.151,1.151,0,0,1,1.627,0L8.52,38.335q.254-.114.513-.213V35.914a1.15,1.15,0,0,1,1.15-1.15h4.7a1.15,1.15,0,0,1,1.15,1.15v2.208q.26.1.513.213l1.562-1.562a1.151,1.151,0,0,1,1.627,0L23.053,40.1a1.151,1.151,0,0,1,0,1.627l-1.562,1.562q.114.254.213.513h2.208a1.15,1.15,0,0,1,1.15,1.15v4.7a1.15,1.15,0,0,1-1.15,1.15H21.7c-.066.173-.137.344-.213.513l1.562,1.562a1.151,1.151,0,0,1,0,1.627l-3.321,3.321a1.151,1.151,0,0,1-1.627,0l-1.562-1.562q-.254.114-.513.213v2.208a1.15,1.15,0,0,1-1.15,1.15Zm-3.547-2.3h2.4V55.639a1.151,1.151,0,0,1,.839-1.108,7.459,7.459,0,0,0,1.637-.679,1.15,1.15,0,0,1,1.377.19l1.336,1.336,1.694-1.694-1.336-1.336a1.151,1.151,0,0,1-.19-1.377,7.473,7.473,0,0,0,.679-1.637,1.151,1.151,0,0,1,1.108-.839h1.887V46.1H20.874a1.151,1.151,0,0,1-1.108-.839,7.459,7.459,0,0,0-.679-1.637,1.15,1.15,0,0,1,.19-1.377l1.336-1.336-1.694-1.695L17.583,40.55a1.15,1.15,0,0,1-1.377.189,7.463,7.463,0,0,0-1.637-.679,1.151,1.151,0,0,1-.839-1.108V37.065h-2.4v1.887a1.151,1.151,0,0,1-.839,1.108,7.46,7.46,0,0,0-1.637.679A1.151,1.151,0,0,1,7.48,40.55L6.144,39.215,4.45,40.909l1.336,1.336a1.15,1.15,0,0,1,.189,1.377A7.467,7.467,0,0,0,5.3,45.259a1.151,1.151,0,0,1-1.108.839H2.3v2.4H4.188a1.151,1.151,0,0,1,1.108.839,7.459,7.459,0,0,0,.679,1.637,1.15,1.15,0,0,1-.189,1.377L4.45,53.683l1.694,1.694L7.48,54.042a1.151,1.151,0,0,1,1.377-.19,7.473,7.473,0,0,0,1.637.679,1.15,1.15,0,0,1,.839,1.108Z" transform="translate(0 -34.764)" fill="#707070"/>
            </g>
          </g>
        </g>
        <g id="Group_43" data-name="Group 43" transform="translate(11.381 28.012)">
          <g id="Group_40" data-name="Group 40" transform="translate(40.264 0)">
            <g id="Group_39" data-name="Group 39">
              <path id="Path_31" data-name="Path 31" d="M438.108,277.5h-7.49a1.15,1.15,0,1,1,0-2.3h6.34v-6.34a1.15,1.15,0,1,1,2.3,0v7.49A1.15,1.15,0,0,1,438.108,277.5Z" transform="translate(-429.467 -267.71)" fill="#707070"/>
            </g>
          </g>
          <g id="Group_42" data-name="Group 42">
            <g id="Group_41" data-name="Group 41">
              <path id="Path_32" data-name="Path 32" d="M103.281,277.5H95.79a1.15,1.15,0,0,1-1.15-1.15v-7.49a1.15,1.15,0,1,1,2.3,0v6.34h6.34a1.15,1.15,0,1,1,0,2.3Z" transform="translate(-94.64 -267.71)" fill="#707070"/>
            </g>
          </g>
        </g>
        <g id="Group_44" data-name="Group 44" transform="translate(30.746 10.493)">
          <path id="Path_33" data-name="Path 33" d="M265.707,124.327H256.83a1.15,1.15,0,0,1,0-2.3h8.877a1.15,1.15,0,1,1,0,2.3Z" transform="translate(-255.68 -122.026)" fill="#707070"/>
        </g>
      </g>
    </g>
  </g>
</svg>
