<svg xmlns="http://www.w3.org/2000/svg" width="74.26" height="65.267" viewBox="0 0 74.26 65.267">
  <path id="portfolio" d="M72.1,8.7H52.359V6.527A6.534,6.534,0,0,0,45.832,0h-17.4A6.534,6.534,0,0,0,21.9,6.527V8.7H2.176A2.181,2.181,0,0,0,0,10.878V58.741a6.534,6.534,0,0,0,6.527,6.527H67.733a6.534,6.534,0,0,0,6.527-6.527V10.915A2.112,2.112,0,0,0,72.1,8.7ZM26.252,6.527a2.178,2.178,0,0,1,2.176-2.176h17.4a2.178,2.178,0,0,1,2.176,2.176V8.7H26.252Zm42.814,6.527L62.31,33.321a2.172,2.172,0,0,1-2.063,1.488H48.008V32.634a2.175,2.175,0,0,0-2.176-2.176h-17.4a2.175,2.175,0,0,0-2.176,2.176v2.176H14.014a2.172,2.172,0,0,1-2.063-1.488L5.194,13.053ZM43.657,34.809V39.16H30.6V34.809ZM69.909,58.741a2.178,2.178,0,0,1-2.176,2.176H6.527a2.178,2.178,0,0,1-2.176-2.176V24.284L7.823,34.7a6.517,6.517,0,0,0,6.191,4.463H26.252v2.176a2.175,2.175,0,0,0,2.176,2.176h17.4a2.175,2.175,0,0,0,2.176-2.176V39.16H60.246A6.517,6.517,0,0,0,66.437,34.7l3.471-10.413Zm0,0" transform="translate(0)" fill="#707070"/>
</svg>
