<svg xmlns="http://www.w3.org/2000/svg" width="40.083" height="65.267" viewBox="0 0 40.083 65.267">
  <path id="tap" d="M113.275,7.916V1.02a1.02,1.02,0,0,1,2.04,0v6.9a1.02,1.02,0,0,1-2.04,0Zm6.2,2.8a1.078,1.078,0,0,0,.727-.293L124.824,5.8a1.019,1.019,0,0,0-1.44-1.44l-4.627,4.627a1.023,1.023,0,0,0,0,1.44.972.972,0,0,0,.714.293ZM100.438,15.9h5.609a1.02,1.02,0,0,0,0-2.04h-5.609a1.02,1.02,0,1,0,0,2.04Zm21.084-1.02a1.023,1.023,0,0,0,1.02,1.02h5.609a1.02,1.02,0,1,0,0-2.04h-5.609A1.023,1.023,0,0,0,121.523,14.876Zm-13.117-4.449a1,1,0,0,0,.727.293,1.055,1.055,0,0,0,.727-.293,1.023,1.023,0,0,0,0-1.44L105.231,4.36a1.019,1.019,0,0,0-1.44,1.44Zm30.441,27.343c0,5.979-1.173,11.027-3.506,15.017-.523.905-.969,1.644-1.339,2.244-1.644,2.741-1.644,2.741-1.542,5.328.038.918.076,2.167.076,3.888a1.023,1.023,0,0,1-1.02,1.02H114.512a1.023,1.023,0,0,1-1.02-1.02V57.759a12.652,12.652,0,0,0-3.582-3.62,10.419,10.419,0,0,1-4.117-6.081c-.242-.727-.5-1.479-.841-2.333-1.045-2.537-1.746-3-3.149-3.913-.4-.255-.829-.535-1.338-.905a3.855,3.855,0,0,1-1.7-3.365,4.6,4.6,0,0,1,2.205-3.595c2.142-1.224,6.45,1.237,8.6,3.557l.331.357V15.832a4.385,4.385,0,1,1,8.77,0V24.4a4.317,4.317,0,0,1,2.346-.676,4.385,4.385,0,0,1,4.385,4.385v1.836a4.317,4.317,0,0,1,2.346-.676,4.385,4.385,0,0,1,4.385,4.385v.433a4.355,4.355,0,0,1,6.705,3.684Zm-2.04,0a2.346,2.346,0,0,0-4.691,0v2.524a1.02,1.02,0,1,1-2.04,0V33.641a2.346,2.346,0,0,0-4.691,0v6.654a1.02,1.02,0,1,1-2.04,0V28.108a2.346,2.346,0,1,0-4.691,0V40.295a1.02,1.02,0,0,1-2.04,0V15.832a2.346,2.346,0,1,0-4.691,0V40.448a1.023,1.023,0,0,1-1.772.7l-2.1-2.256a12.658,12.658,0,0,0-3.608-2.613c-1.389-.663-2.256-.688-2.5-.548a2.534,2.534,0,0,0-1.173,1.938,1.822,1.822,0,0,0,.854,1.606c.459.331.854.6,1.249.841,1.53.994,2.639,1.721,3.926,4.844.382.931.65,1.746.892,2.46.7,2.116,1.135,3.391,3.4,5.1,3.493,2.626,4.258,4.462,4.334,4.666a1.106,1.106,0,0,1,.064.357v5.685h14.978c-.013-1.173-.051-2.078-.076-2.792-.115-3.11-.064-3.289,1.836-6.463.357-.586.8-1.326,1.326-2.231,2.167-3.659,3.251-8.362,3.251-13.971Z" transform="translate(-98.764)" fill="#707070"/>
</svg>
