<svg xmlns="http://www.w3.org/2000/svg" width="68.398" height="65.267" viewBox="0 0 68.398 65.267">
  <g id="growth" transform="translate(0 -0.467)">
    <path id="Path_9" data-name="Path 9" d="M33.971,228.827A17.493,17.493,0,0,1,27,227.388L16.456,222.8a39.988,39.988,0,0,0-11.989-3.124L1,219.333a1.114,1.114,0,0,1-1-1.109V207.361a1.113,1.113,0,0,1,.223-.668c.259-.346,6.466-8.455,15.947-6.345A40.264,40.264,0,0,1,28.458,205.4a12.407,12.407,0,0,0,6.553,1.832H45.556a5.065,5.065,0,0,1,4.309,2.4l9.082-10.464a9.634,9.634,0,0,1,7.658-3.791h.679a1.115,1.115,0,0,1,1.02,1.563l-8.214,18.669a14.635,14.635,0,0,1-9.781,8.249l-1.445.361-8.407,3.363a17.486,17.486,0,0,1-6.485,1.239ZM2.229,217.215l2.459.246a42.239,42.239,0,0,1,12.657,3.3l10.545,4.584a15.334,15.334,0,0,0,11.739.173l8.476-3.39a1.147,1.147,0,0,1,.144-.046l1.519-.38a12.389,12.389,0,0,0,8.281-6.984l7.492-17.028a7.451,7.451,0,0,0-4.86,2.884l-10.061,11.6c0,.043,0,.086,0,.13a5.071,5.071,0,0,1-5.065,5.065H30.844a17.739,17.739,0,0,0-5.617.911l-.409-1.04-.346-1.059.057-.018a19.952,19.952,0,0,1,6.316-1.024H45.557a2.836,2.836,0,1,0,0-5.672H35.011a14.634,14.634,0,0,1-7.728-2.167,38.033,38.033,0,0,0-11.6-4.772c-7.18-1.592-12.346,3.918-13.457,5.232v9.46Zm0,0" transform="translate(0 -163.093)" fill="#707070"/>
    <path id="Path_10" data-name="Path 10" d="M232.988,108.827a13.083,13.083,0,0,1-5.753-1.587,1.121,1.121,0,0,1-.551-.622c-.086-.242-2.078-5.971,1.087-10.207,2.3-3.08,6.626-4.467,12.863-4.119a1.113,1.113,0,0,1,1.05,1.057c.022.443.482,10.89-4.845,14.368a6.89,6.89,0,0,1-3.852,1.11Zm-4.331-3.376c2.928,1.373,5.269,1.508,6.965.4,3.159-2.063,3.842-8.188,3.858-11.375-4.887-.119-8.214.982-9.923,3.269-2.033,2.723-1.243,6.468-.9,7.707Zm0,0" transform="translate(-189.091 -76.788)" fill="#707070"/>
    <path id="Path_11" data-name="Path 11" d="M108.614,17.435a10.43,10.43,0,0,1-6.246-1.881c-3.375-2.473-4.926-7.182-4.611-13.994A1.115,1.115,0,0,1,98.8.5c.482-.027,11.894-.636,15.734,5.128,1.788,2.683,1.642,6.2-.434,10.446a1.113,1.113,0,0,1-.617.557,15.392,15.392,0,0,1-4.874.805Zm4.489-1.851h.011ZM99.95,2.691c-.1,5.457,1.158,9.176,3.734,11.064,3.084,2.26,7.3,1.3,8.619.913,1.515-3.287,1.643-5.911.38-7.807-2.347-3.523-9.23-4.212-12.734-4.17Zm0,0" transform="translate(-81.763 0)" fill="#707070"/>
    <path id="Path_12" data-name="Path 12" d="M151.966,82.533c-.035,0-.07,0-.106-.005a1.114,1.114,0,0,1-1.008-1.166q.1-1.967.33-3.733c.464-7.888.225-26.256-11.389-31.338a1.115,1.115,0,1,1,.894-2.042c6.844,2.994,11.149,10.449,12.448,21.558.117,1,.2,1.977.269,2.933,3.059-7.729,7.738-10.46,8.017-10.616a1.114,1.114,0,0,1,1.1,1.941c-.118.069-7.293,4.375-9.094,17.654-.137,2.272-.335,3.72-.353,3.853a1.114,1.114,0,0,1-1.1.962Zm0,0" transform="translate(-116.411 -36.555)" fill="#707070"/>
  </g>
</svg>
