<svg xmlns="http://www.w3.org/2000/svg" width="18.293" height="18.293" viewBox="0 0 18.293 18.293">
  <path id="phone_outline" d="M8.836,8.774a2.974,2.974,0,0,0-.549,3.973,13.027,13.027,0,0,0,3.26,3.259,2.974,2.974,0,0,0,3.972-.549l.01,0a13.644,13.644,0,0,0,3.731,1.116v2.683h0A13.946,13.946,0,0,1,5.033,5.036v0H7.715a13.635,13.635,0,0,0,1.115,3.73ZM19.26,21.293h1.017a1.016,1.016,0,0,0,1.016-1.016V15.7a1.016,1.016,0,0,0-.867-1.005l-.868-.129a11.6,11.6,0,0,1-3.174-.949l-.765-.354a1.016,1.016,0,0,0-1.254.332l-.346.485a.95.95,0,0,1-1.312.257,11,11,0,0,1-2.75-2.749.95.95,0,0,1,.257-1.312l.485-.346a1.016,1.016,0,0,0,.332-1.254l-.355-.766a11.6,11.6,0,0,1-.949-3.174L9.6,3.867A1.016,1.016,0,0,0,8.592,3H4.016A1.016,1.016,0,0,0,3,4.016V5.034A15.978,15.978,0,0,0,19.26,21.293Z" transform="translate(-3 -3)" fill="#ee7526"/>
</svg>
